:FULLY-SPECIFIED
:FORCE-ALL-JOINTS-BE-3DOF
:DEGREES
1019
root 1.14863 15.1624 32.435 0 0 0
lfemur 0 0 0
ltibia 0 0 0
lfoot 0 0 0
ltoes 0 0 0
rfemur 0 0 0
rtibia 50.1662 -0 0
rfoot 0 0 0
rtoes 0 0 0
lowerback 0 0 0
upperback 0 0 0
thorax 0.230421 -0.0975119 -6.30255
lowerneck 0 0 0
upperneck 1.6114 0.566424 3.56775
head 0 0 0
lclavicle 0 0 0
lhumerus -58.6909 -46.5256 115.412
lradius 55.644 -0 0
lwrist 25.1932 0 0
lhand 0 0 0
lfingers 0 0 0
lthumb 60.0586 38.5792 0.000128877
rclavicle 0 0 0
rhumerus 2.83538 -23.8931 0.144779
rradius 27.6134 -0 0
rwrist -10.3161 0 0
rhand 0 0 0
rfingers 0 0 0
rthumb -4.03163 -72.9119 0.000475027
1020
root 1.14915 15.162 32.4379 0 0 0
lfemur 0 0 0
ltibia 0 0 0
lfoot 0 0 0
ltoes 0 0 0
rfemur 0 0 0
rtibia 50.1727 -0 0
rfoot 0 0 0
rtoes 0 0 0
lowerback 0 0 0
upperback 0 0 0
thorax 0.24569 -0.0908121 -6.3021
lowerneck 0 0 0
upperneck 1.61481 0.552566 3.57196
head 0 0 0
lclavicle 0 0 0
lhumerus -58.688 -46.5471 115.402
lradius 55.6545 -0 0
lwrist 25.2053 0 0
lhand 0 0 0
lfingers 0 0 0
lthumb 60.0723 38.5978 0.000124655
rclavicle 0 0 0
rhumerus 2.81388 -23.8837 0.158778
rradius 27.596 -0 0
rwrist -10.2619 0 0
rhand 0 0 0
rfingers 0 0 0
rthumb -4.01202 -72.8642 0.000459465
1021
root 1.14971 15.1616 32.4409 0 0 0
lfemur 0 0 0
ltibia 0 0 0
lfoot 0 0 0
ltoes 0 0 0
rfemur 0 0 0
rtibia 50.179 -0 0
rfoot 0 0 0
rtoes 0 0 0
lowerback 0 0 0
upperback 0 0 0
thorax 0.260581 -0.0842782 -6.30166
lowerneck 0 0 0
upperneck 1.61813 0.539051 3.57606
head 0 0 0
lclavicle 0 0 0
lhumerus -58.6852 -46.5681 115.392
lradius 55.6647 -0 0
lwrist 25.2171 0 0
lhand 0 0 0
lfingers 0 0 0
lthumb 60.0857 38.6158 0.000116271
rclavicle 0 0 0
rhumerus 2.79292 -23.8745 0.172425
rradius 27.5792 -0 0
rwrist -10.2091 0 0
rhand 0 0 0
rfingers 0 0 0
rthumb -3.99289 -72.8177 0.000428561
1022
root 1.15032 15.1612 32.4441 0 0 0
lfemur 0 0 0
ltibia 0 0 0
lfoot 0 0 0
ltoes 0 0 0
rfemur 0 0 0
rtibia 50.185 -0 0
rfoot 0 0 0
rtoes 0 0 0
lowerback 0 0 0
upperback 0 0 0
thorax 0.274867 -0.0780098 -6.30124
lowerneck 0 0 0
upperneck 1.62131 0.526085 3.58
head 0 0 0
lclavicle 0 0 0
lhumerus -58.6824 -46.5882 115.383
lradius 55.6745 -0 0
lwrist 25.2284 0 0
lhand 0 0 0
lfingers 0 0 0
lthumb 60.0985 38.6332 0.000104266
rclavicle 0 0 0
rhumerus 2.7728 -23.8657 0.185514
rradius 27.563 -0 0
rwrist -10.1584 0 0
rhand 0 0 0
rfingers 0 0 0
rthumb -3.97454 -72.773 0.000384314
1023
root 1.15098 15.1608 32.4473 0 0 0
lfemur 0 0 0
ltibia 0 0 0
lfoot 0 0 0
ltoes 0 0 0
rfemur 0 0 0
rtibia 50.1907 -0 0
rfoot 0 0 0
rtoes 0 0 0
lowerback 0 0 0
upperback 0 0 0
thorax 0.288321 -0.0721063 -6.30084
lowerneck 0 0 0
upperneck 1.62431 0.513873 3.58371
head 0 0 0
lclavicle 0 0 0
lhumerus -58.6798 -46.6071 115.374
lradius 55.6837 -0 0
lwrist 25.239 0 0
lhand 0 0 0
lfingers 0 0 0
lthumb 60.1106 38.6495 8.94143e-05
rclavicle 0 0 0
rhumerus 2.75387 -23.8575 0.197838
rradius 27.5477 -0 0
rwrist -10.1106 0 0
rhand 0 0 0
rfingers 0 0 0
rthumb -3.95726 -72.731 0.000329571
1024
root 1.15171 15.1604 32.4506 0 0 0
lfemur 0 0 0
ltibia 0 0 0
lfoot 0 0 0
ltoes 0 0 0
rfemur 0 0 0
rtibia 50.1959 -0 0
rfoot 0 0 0
rtoes 0 0 0
lowerback 0 0 0
upperback 0 0 0
thorax 0.300718 -0.0666672 -6.30047
lowerneck 0 0 0
upperneck 1.62707 0.502621 3.58713
head 0 0 0
lclavicle 0 0 0
lhumerus -58.6774 -46.6246 115.366
lradius 55.6922 -0 0
lwrist 25.2488 0 0
lhand 0 0 0
lfingers 0 0 0
lthumb 60.1217 38.6645 7.26857e-05
rclavicle 0 0 0
rhumerus 2.73642 -23.8498 0.209189
rradius 27.5336 -0 0
rwrist -10.0666 0 0
rhand 0 0 0
rfingers 0 0 0
rthumb -3.94133 -72.6923 0.000267911
1025
root 1.15252 15.1601 32.4539 0 0 0
lfemur 0 0 0
ltibia 0 0 0
lfoot 0 0 0
ltoes 0 0 0
rfemur 0 0 0
rtibia 50.2006 -0 0
rfoot 0 0 0
rtoes 0 0 0
lowerback 0 0 0
upperback 0 0 0
thorax 0.311829 -0.061792 -6.30014
lowerneck 0 0 0
upperneck 1.62954 0.492536 3.59019
head 0 0 0
lclavicle 0 0 0
lhumerus -58.6753 -46.6403 115.359
lradius 55.6999 -0 0
lwrist 25.2576 0 0
lhand 0 0 0
lfingers 0 0 0
lthumb 60.1317 38.678 5.52092e-05
rclavicle 0 0 0
rhumerus 2.72079 -23.843 0.21936
rradius 27.521 -0 0
rwrist -10.0272 0 0
rhand 0 0 0
rfingers 0 0 0
rthumb -3.92706 -72.6576 0.000203495
1026
root 1.15342 15.1597 32.4572 0 0 0
lfemur 0 0 0
ltibia 0 0 0
lfoot 0 0 0
ltoes 0 0 0
rfemur 0 0 0
rtibia 50.2047 -0 0
rfoot 0 0 0
rtoes 0 0 0
lowerback 0 0 0
upperback 0 0 0
thorax 0.321429 -0.0575801 -6.29985
lowerneck 0 0 0
upperneck 1.63168 0.483822 3.59284
head 0 0 0
lclavicle 0 0 0
lhumerus -58.6734 -46.6538 115.353
lradius 55.7064 -0 0
lwrist 25.2652 0 0
lhand 0 0 0
lfingers 0 0 0
lthumb 60.1403 38.6897 3.82215e-05
rclavicle 0 0 0
rhumerus 2.70728 -23.8371 0.228146
rradius 27.5102 -0 0
rwrist -9.99313 0 0
rhand 0 0 0
rfingers 0 0 0
rthumb -3.91473 -72.6276 0.00014088
1027
root 1.15441 15.1594 32.4604 0 0 0
lfemur 0 0 0
ltibia 0 0 0
lfoot 0 0 0
ltoes 0 0 0
rfemur 0 0 0
rtibia 50.208 -0 0
rfoot 0 0 0
rtoes 0 0 0
lowerback 0 0 0
upperback 0 0 0
thorax 0.32929 -0.0541311 -6.29962
lowerneck 0 0 0
upperneck 1.63343 0.476687 3.595
head 0 0 0
lclavicle 0 0 0
lhumerus -58.6719 -46.6649 115.348
lradius 55.7118 -0 0
lwrist 25.2714 0 0
lhand 0 0 0
lfingers 0 0 0
lthumb 60.1473 38.6992 2.30061e-05
rclavicle 0 0 0
rhumerus 2.69622 -23.8322 0.235339
rradius 27.5012 -0 0
rwrist -9.96523 0 0
rhand 0 0 0
rfingers 0 0 0
rthumb -3.90463 -72.603 8.47979e-05
1028
root 1.15552 15.1592 32.4637 0 0 0
lfemur 0 0 0
ltibia 0 0 0
lfoot 0 0 0
ltoes 0 0 0
rfemur 0 0 0
rtibia 50.2105 -0 0
rfoot 0 0 0
rtoes 0 0 0
lowerback 0 0 0
upperback 0 0 0
thorax 0.335186 -0.0515443 -6.29944
lowerneck 0 0 0
upperneck 1.63474 0.471335 3.59663
head 0 0 0
lclavicle 0 0 0
lhumerus -58.6708 -46.6732 115.344
lradius 55.7159 -0 0
lwrist 25.2761 0 0
lhand 0 0 0
lfingers 0 0 0
lthumb 60.1526 38.7063 1.08239e-05
rclavicle 0 0 0
rhumerus 2.68793 -23.8286 0.240732
rradius 27.4946 -0 0
rwrist -9.9443 0 0
rhand 0 0 0
rfingers 0 0 0
rthumb -3.89706 -72.5846 3.98958e-05
1029
root 1.15675 15.159 32.4668 0 0 0
lfemur 0 0 0
ltibia 0 0 0
lfoot 0 0 0
ltoes 0 0 0
rfemur 0 0 0
rtibia 50.2121 -0 0
rfoot 0 0 0
rtoes 0 0 0
lowerback 0 0 0
upperback 0 0 0
thorax 0.33889 -0.0499193 -6.29933
lowerneck 0 0 0
upperneck 1.63556 0.467973 3.59765
head 0 0 0
lclavicle 0 0 0
lhumerus -58.67 -46.6784 115.342
lradius 55.7184 -0 0
lwrist 25.279 0 0
lhand 0 0 0
lfingers 0 0 0
lthumb 60.1559 38.7108 2.8332e-06
rclavicle 0 0 0
rhumerus 2.68272 -23.8263 0.244121
rradius 27.4904 -0 0
rwrist -9.93116 0 0
rhand 0 0 0
rfingers 0 0 0
rthumb -3.8923 -72.573 1.04429e-05
1030
root 1.15811 15.1588 32.4698 4.8239 -3.44097 3.506
lfemur 8.58543 0.464751 5.76744
ltibia -2.06736e-14 0 0
lfoot -30.1828 -11.0505 0
ltoes -34.3868 0 0
rfemur -31.4698 -16.0328 -6.0542
rtibia 50.2126 0 0
rfoot -22.1425 5.39807 0
rtoes -41.7222 0 0
lowerback -1.56011 -0.0823089 0.0960802
upperback -0.510942 -0.0891438 -6.02094
thorax 0.340175 -0.0493555 -6.29929
lowerneck -7.12803 0.875883 6.42781
upperneck 1.63585 0.466807 3.598
head 1.73217 0.371226 0.0601479
lclavicle 1.31198e-14 3.18055e-14 0
lhumerus -58.6698 -46.6802 115.341
lradius 55.7193 0 0
lwrist 25.28 0 0
lhand 37.3413 25.0981 0
lfingers 7.12502 0 0
lthumb 60.1571 38.7124 0
rclavicle 1.31198e-14 3.18055e-14 0
rhumerus 2.68091 -23.8255 0.245296
rradius 27.4889 0 0
rwrist -9.9266 0 0
rhand -30.5935 -42.6248 0
rfingers 7.12502 0 0
rthumb -3.89065 -72.569 0
1031
root 1.15961 15.1587 32.4728 4.82591 -3.44052 3.50521
lfemur 8.59056 0.465363 5.76433
ltibia 0 0 0
lfoot 0 0 0
ltoes -34.3813 0 0
rfemur 0 0 0
rtibia 0 0 0
rfoot -22.1349 5.39997 4.35433e-06
rtoes -41.7012 0 0
lowerback -1.56687 -0.0814795 0.0867834
upperback -0.510239 -0.0876198 -6.02189
thorax 0 0 0
lowerneck 0 0 0
upperneck 1.62484 0.463203 3.5993
head 1.72778 0.369044 0.0597219
lclavicle 0 0 0
lhumerus 0 0 0
lradius 0 0 0
lwrist 25.2867 0 0
lhand 37.3432 25.1044 3.65053e-06
lfingers 0 0 0
lthumb 0 0 0
rclavicle 0 0 0
rhumerus 0 0 0
rradius 27.4889 -0 0
rwrist -9.92215 0 0
rhand 0 0 0
rfingers 0 0 0
rthumb 0 0 0
1032
root 1.16125 15.1585 32.4758 4.82851 -3.43994 3.50419
lfemur 8.59717 0.46615 5.76033
ltibia 0 0 0
lfoot 0 0 0
ltoes -34.3743 0 0
rfemur 0 0 0
rtibia 0 0 0
rfoot -22.1251 5.40242 9.58806e-06
rtoes -41.6742 0 0
lowerback -1.57558 -0.0804134 0.074815
upperback -0.509334 -0.0856577 -6.0231
thorax 0 0 0
lowerneck 0 0 0
upperneck 1.61067 0.458564 3.60098
head 1.72213 0.366235 0.0591738
lclavicle 0 0 0
lhumerus 0 0 0
lradius 0 0 0
lwrist 25.2953 0 0
lhand 37.3457 25.1124 8.03833e-06
lfingers 0 0 0
lthumb 0 0 0
rclavicle 0 0 0
rhumerus 0 0 0
rradius 27.4889 -0 0
rwrist -9.91643 0 0
rhand 0 0 0
rfingers 0 0 0
rthumb 0 0 0
1033
root 1.16301 15.1584 32.479 4.83161 -3.43924 3.50298
lfemur 8.60507 0.467093 5.75554
ltibia 0 0 0
lfoot 0 0 0
ltoes -34.3659 0 0
rfemur 0 0 0
rtibia 0 0 0
rfoot -22.1134 5.40535 1.52999e-05
rtoes -41.6418 0 0
lowerback -1.586 -0.0791402 0.0604955
upperback -0.508251 -0.0833103 -6.02456
thorax 0 0 0
lowerneck 0 0 0
upperneck 1.59372 0.453014 3.60298
head 1.71536 0.362875 0.0585183
lclavicle 0 0 0
lhumerus 0 0 0
lradius 0 0 0
lwrist 25.3055 0 0
lhand 37.3487 25.122 1.2827e-05
lfingers 0 0 0
lthumb 0 0 0
rclavicle 0 0 0
rhumerus 0 0 0
rradius 27.4889 -0 0
rwrist -9.90958 0 0
rhand 0 0 0
rfingers 0 0 0
rthumb 0 0 0
1034
root 1.16489 15.1583 32.4821 4.83516 -3.43845 3.50159
lfemur 8.61409 0.468171 5.75007
ltibia 0 0 0
lfoot 0 0 0
ltoes -34.3563 0 0
rfemur 0 0 0
rtibia 0 0 0
rfoot -22.1 5.40869 2.10891e-05
rtoes -41.6049 0 0
lowerback -1.59789 -0.0776897 0.0441452
upperback -0.507014 -0.08063 -6.02623
thorax 0 0 0
lowerneck 0 0 0
upperneck 1.57436 0.446678 3.60527
head 1.70764 0.359037 0.0577704
lclavicle 0 0 0
lhumerus 0 0 0
lradius 0 0 0
lwrist 25.3173 0 0
lhand 37.3521 25.1331 1.76804e-05
lfingers 0 0 0
lthumb 0 0 0
rclavicle 0 0 0
rhumerus 0 0 0
rradius 27.4888 -0 0
rwrist -9.90176 0 0
rhand 0 0 0
rfingers 0 0 0
rthumb 0 0 0
1035
root 1.16686 15.1582 32.4854 4.83907 -3.43757 3.50006
lfemur 8.62406 0.469362 5.74403
ltibia 0 0 0
lfoot 0 0 0
ltoes -34.3457 0 0
rfemur 0 0 0
rtibia 0 0 0
rfoot -22.0852 5.41238 2.65758e-05
rtoes -41.5641 0 0
lowerback -1.61103 -0.0760915 0.0260848
upperback -0.505648 -0.0776693 -6.02806
thorax 0 0 0
lowerneck 0 0 0
upperneck 1.55298 0.439681 3.60781
head 1.69911 0.354799 0.0569449
lclavicle 0 0 0
lhumerus 0 0 0
lradius 0 0 0
lwrist 25.3302 0 0
lhand 37.3559 25.1452 2.22803e-05
lfingers 0 0 0
lthumb 0 0 0
rclavicle 0 0 0
rhumerus 0 0 0
rradius 27.4888 -0 0
rwrist -9.89312 0 0
rhand 0 0 0
rfingers 0 0 0
rthumb 0 0 0
1036
root 1.16893 15.1581 32.4887 4.84328 -3.43663 3.49841
lfemur 8.63479 0.470646 5.73753
ltibia 0 0 0
lfoot 0 0 0
ltoes -34.3343 0 0
rfemur 0 0 0
rtibia 0 0 0
rfoot -22.0693 5.41636 3.14187e-05
rtoes -41.5202 0 0
lowerback -1.62518 -0.074375 0.00663475
upperback -0.504178 -0.0744809 -6.03004
thorax 0 0 0
lowerneck 0 0 0
upperneck 1.52996 0.432146 3.61054
head 1.68992 0.350234 0.0560565
lclavicle 0 0 0
lhumerus 0 0 0
lradius 0 0 0
lwrist 25.3442 0 0
lhand 37.36 25.1583 2.63405e-05
lfingers 0 0 0
lthumb 0 0 0
rclavicle 0 0 0
rhumerus 0 0 0
rradius 27.4888 -0 0
rwrist -9.88382 0 0
rhand 0 0 0
rfingers 0 0 0
rthumb 0 0 0
1037
root 1.17107 15.158 32.4921 4.84773 -3.43563 3.49666
lfemur 8.64611 0.472002 5.73067
ltibia 0 0 0
lfoot 0 0 0
ltoes -34.3223 0 0
rfemur 0 0 0
rtibia 0 0 0
rfoot -22.0525 5.42055 3.53298e-05
rtoes -41.4739 0 0
lowerback -1.64011 -0.0725693 -0.0138845
upperback -0.502626 -0.0711172 -6.03213
thorax 0 0 0
lowerneck 0 0 0
upperneck 1.50566 0.424198 3.61342
head 1.68023 0.345418 0.0551202
lclavicle 0 0 0
lhumerus 0 0 0
lradius 0 0 0
lwrist 25.3589 0 0
lhand 37.3642 25.1721 2.96194e-05
lfingers 0 0 0
lthumb 0 0 0
rclavicle 0 0 0
rhumerus 0 0 0
rradius 27.4888 -0 0
rwrist -9.874 0 0
rhand 0 0 0
rfingers 0 0 0
rthumb 0 0 0
